<svg xmlns="http://www.w3.org/2000/svg" viewBox="0 0 100 100" fill="none" shape-rendering="auto" aria-hidden="true"><!-- Generated by DiceBear (https://www.dicebear.com) --><metadata xmlns:rdf="http://www.w3.org/1999/02/22-rdf-syntax-ns#" xmlns:xsi="http://www.w3.org/2001/XMLSchema-instance" xmlns:dc="http://purl.org/dc/elements/1.1/" xmlns:dcterms="http://purl.org/dc/terms/"><rdf:RDF><rdf:Description><dc:title>Moods</dc:title><dc:creator>DiceBear</dc:creator><dc:source xsi:type="dcterms:URI">https://www.dicebear.com</dc:source><dcterms:license xsi:type="dcterms:URI">https://creativecommons.org/publicdomain/zero/1.0/</dcterms:license><dc:rights>“Moods” (https://www.dicebear.com) by “DiceBear”, licensed under “CC0 1.0” (https://creativecommons.org/publicdomain/zero/1.0/)</dc:rights></rdf:Description></rdf:RDF></metadata><defs><clipPath id="dbmo-f-pebble"><path d="M48 7c8-.33 16.33 1.83 22 7s11.67 15.33 12 24-3.67 20.67-10 28-19 15-28 16-20.33-4-26-10-8.67-16.67-8-26 5.67-23.5 12-30 18-8.67 26-9"/></clipPath><g id="face-pebble-d1fff589"><path d="M51 10.5c8-.33 16.33 1.83 22 7s11.67 15.33 12 24-3.67 20.67-10 28-19 15-28 16-20.33-4-26-10-8.67-16.67-8-26 5.67-23.5 12-30 18-8.67 26-9" fill="#1e293b" opacity=".15"/><path d="M48 7c8-.33 16.33 1.83 22 7s11.67 15.33 12 24-3.67 20.67-10 28-19 15-28 16-20.33-4-26-10-8.67-16.67-8-26 5.67-23.5 12-30 18-8.67 26-9" fill="#ebadcc"/><g clip-path="url(#dbmo-f-pebble)"><path d="M48 7c8-.33 16.33 1.83 22 7s11.67 15.33 12 24-3.67 20.67-10 28-19 15-28 16-20.33-4-26-10-8.67-16.67-8-26 5.67-23.5 12-30 18-8.67 26-9m3 3.5c8-.33 16.33 1.83 22 7s11.67 15.33 12 24-3.67 20.67-10 28-19 15-28 16-20.33-4-26-10-8.67-16.67-8-26 5.67-23.5 12-30 18-8.67 26-9" fill="#ffffff" opacity=".16" fill-rule="evenodd"/><path d="M48 7c8-.33 16.33 1.83 22 7s11.67 15.33 12 24-3.67 20.67-10 28-19 15-28 16-20.33-4-26-10-8.67-16.67-8-26 5.67-23.5 12-30 18-8.67 26-9m-3-3.5c8-.33 16.33 1.83 22 7s11.67 15.33 12 24-3.67 20.67-10 28-19 15-28 16-20.33-4-26-10-8.67-16.67-8-26 5.67-23.5 12-30 18-8.67 26-9" fill="#1e293b" opacity=".1" fill-rule="evenodd"/></g></g><g id="eyes-squint-d1fff589"><path d="m4.5 6.5 11 4.5-11 4.5m41-9-11 4.5 11 4.5" fill="none" stroke="#1e293b" stroke-width="4" stroke-linecap="round" stroke-linejoin="round"/></g><g id="mouth-tongue-d1fff589"><path d="M10.5 3.5q7.5 6.5 15 0" fill="none" stroke="#1e293b" stroke-width="5" stroke-linecap="round"/><path d="M13.8 7a4.2 4.2 0 0 0 8.4 0Z" fill="#fb7185"/></g><g id="animation-none-d1fff589"></g><clipPath id="clip-d1fff589"><rect width="100" height="100" rx="0" ry="0"/></clipPath></defs><g clip-path="url(#clip-d1fff589)"><rect width="100" height="100" fill="#00000000"/><use transform="translate(4 6)" href="#face-pebble-d1fff589"/><g class="dbmo-eyes"><use transform="translate(25 33) translate(0.2392, -0.51676)" href="#eyes-squint-d1fff589"/></g><use transform="translate(32 57) translate(-0.6377, -0.77514)" href="#mouth-tongue-d1fff589"/><use href="#animation-none-d1fff589"/></g></svg>